<svg width="240" height="100" viewBox="0 0 240 100" xmlns="http://www.w3.org/2000/svg">
  <!-- UWM Brutalist Logo - Very Bold Block Letters -->
  
  <!-- Optional Border -->
  <rect width="240" height="100" fill="white" stroke="black" stroke-width="6"/>
  
  <!-- U Letter - Bold Block Style -->
  <path d="M40,20 L40,60 L40,70 L80,70 L80,60 L80,20 L65,20 L65,60 L55,60 L55,20 Z" fill="black"/>
  
  <!-- W Letter - Bold Block Style -->
  <path d="M90,20 L100,70 L110,70 L120,40 L130,70 L140,70 L150,20 L135,20 L130,45 L120,20 L115,20 L105,45 L100,20 Z" fill="black"/>
  
  <!-- M Letter - Bold Block Style -->
  <path d="M160,20 L160,70 L175,70 L175,45 L180,55 L185,45 L185,70 L200,70 L200,20 L185,20 L180,35 L175,20 Z" fill="black"/>
</svg> 